<svg width="24" height="24" viewBox="0 0 24 24" fill="none" xmlns="http://www.w3.org/2000/svg">
<path fill-rule="evenodd" clip-rule="evenodd" d="M9 5.5C9 5.22386 9.22386 5 9.5 5H18C18.5523 5 19 5.44772 19 6V14C19 14.2764 18.8892 14.525 18.7071 14.7071C18.6142 14.8 18.5039 14.8742 18.3825 14.9245C18.3231 14.9492 18.2608 14.9682 18.1962 14.981C17.6544 15.0881 17.302 15.6142 17.4092 16.156C17.5163 16.6978 18.0424 17.0501 18.5842 16.943C18.7797 16.9043 18.9685 16.8466 19.1485 16.772C19.516 16.6196 19.8457 16.3969 20.1213 16.1213C20.6631 15.5795 21 14.8282 21 14V6C21 4.34315 19.6569 3 18 3H9.5C8.11929 3 7 4.11929 7 5.5C7 6.05228 7.44772 6.5 8 6.5C8.55228 6.5 9 6.05228 9 5.5ZM6 7C4.34315 7 3 8.34315 3 10V18C3 19.6569 4.34315 21 6 21H14C15.6569 21 17 19.6569 17 18V10C17 8.34315 15.6569 7 14 7H6ZM5 10C5 9.44772 5.44772 9 6 9H14C14.5523 9 15 9.44772 15 10V18C15 18.5523 14.5523 19 14 19H6C5.44772 19 5 18.5523 5 18V10Z" fill="#3D3D3D"/>
</svg>
