<svg width="24" height="24" viewBox="0 0 24 24" fill="none" xmlns="http://www.w3.org/2000/svg">
<path fill-rule="evenodd" clip-rule="evenodd" d="M19 12C19 11.4477 18.5523 11 18 11H9C8.44771 11 8 11.4477 8 12C8 12.5523 8.44771 13 9 13H18C18.5523 13 19 12.5523 19 12Z" fill="#3D3D3D"/>
<path fill-rule="evenodd" clip-rule="evenodd" d="M19 6C19 5.44772 18.5523 5 18 5H6C5.44771 5 5 5.44772 5 6C5 6.55228 5.44771 7 6 7H18C18.5523 7 19 6.55228 19 6Z" fill="#3D3D3D"/>
<path fill-rule="evenodd" clip-rule="evenodd" d="M19 18C19 17.4477 18.5523 17 18 17H13C12.4477 17 12 17.4477 12 18C12 18.5523 12.4477 19 13 19H18C18.5523 19 19 18.5523 19 18Z" fill="#3D3D3D"/>
</svg>
