<svg width="24" height="24" viewBox="0 0 24 24" fill="none" xmlns="http://www.w3.org/2000/svg">
<path d="M7.18061 11.3697L4.8915 13.6588C4.8915 13.6588 3.36096 15.1747 5.19602 17.0097M11.8412 16.6085C13.3522 15.0975 14.0893 14.3605 14.0893 14.3605C14.0893 14.3605 15.6796 12.7654 13.5522 10.638C13.5349 10.6207 13.2071 10.2929 13.2071 10.2929" stroke="#3D3D3D" stroke-width="2" stroke-linecap="round" stroke-linejoin="round"/>
<path d="M16.9497 11.5L18.1085 10.3412C18.1085 10.3412 19.639 8.82534 17.804 6.99028C15.9689 5.15522 16.481 5.66726 16.481 5.66726C16.481 5.66726 14.6698 3.88048 13.1588 5.39147C11.6478 6.90245 9.91073 8.63952 9.91073 8.63952C9.91073 8.63952 8.32037 10.2346 10.4478 12.362C10.4651 12.3793 10.7929 12.7071 10.7929 12.7071" stroke="#3D3D3D" stroke-width="2" stroke-linecap="round" stroke-linejoin="round"/>
<path d="M7 19L6 20" stroke="#3D3D3D" stroke-width="2" stroke-linecap="round"/>
<path d="M10 19L11 20" stroke="#3D3D3D" stroke-width="2" stroke-linecap="round"/>
</svg>
